<svg width="46" height="17" viewBox="0 0 46 17" fill="none" xmlns="http://www.w3.org/2000/svg">
<path d="M0.36 16V1.2H3.44V7.46L8.74 1.2H12.54L6.36 8.3L12.76 16H8.82L3.44 9.42V16H0.36ZM22.9144 16.2C22.1277 16.2 21.441 16.0467 20.8544 15.74C20.281 15.42 19.801 15 19.4144 14.48C19.0277 13.9467 18.7344 13.3533 18.5344 12.7C18.3477 12.0467 18.2544 11.38 18.2544 10.7C18.2544 10.02 18.3477 9.35333 18.5344 8.7C18.7344 8.04667 19.0277 7.46 19.4144 6.94C19.801 6.40667 20.281 5.98667 20.8544 5.68C21.441 5.36 22.1277 5.2 22.9144 5.2C23.5944 5.2 24.1544 5.31333 24.5944 5.54C25.0344 5.75333 25.3677 5.98667 25.5944 6.24C25.8344 6.49333 25.981 6.66667 26.0344 6.76H26.1944V0.799999H29.2344V16H26.1944V14.64H26.0344C25.981 14.7333 25.8344 14.9067 25.5944 15.16C25.3677 15.4133 25.0344 15.6533 24.5944 15.88C24.1544 16.0933 23.5944 16.2 22.9144 16.2ZM23.7944 13.74C24.341 13.74 24.7944 13.5933 25.1544 13.3C25.5277 12.9933 25.801 12.6067 25.9744 12.14C26.161 11.6733 26.2544 11.1933 26.2544 10.7C26.2544 10.2067 26.161 9.72667 25.9744 9.26C25.801 8.79333 25.5277 8.41333 25.1544 8.12C24.7944 7.81333 24.341 7.66 23.7944 7.66C23.2477 7.66 22.7877 7.81333 22.4144 8.12C22.0544 8.41333 21.781 8.79333 21.5944 9.26C21.421 9.72667 21.3344 10.2067 21.3344 10.7C21.3344 11.1933 21.421 11.6733 21.5944 12.14C21.781 12.6067 22.0544 12.9933 22.4144 13.3C22.7877 13.5933 23.2477 13.74 23.7944 13.74ZM40.9517 16.2C40.0184 16.2 39.2117 16.0467 38.5317 15.74C37.8517 15.42 37.2917 15 36.8517 14.48C36.4117 13.9467 36.0784 13.3533 35.8517 12.7C35.6384 12.0467 35.5317 11.3733 35.5317 10.68C35.5317 10.0133 35.6317 9.36 35.8317 8.72C36.0451 8.06667 36.3651 7.47333 36.7917 6.94C37.2317 6.40667 37.7851 5.98667 38.4517 5.68C39.1317 5.36 39.9317 5.2 40.8517 5.2C41.8251 5.2 42.6851 5.41333 43.4317 5.84C44.1917 6.26667 44.7851 6.9 45.2117 7.74C45.6384 8.56667 45.8517 9.57333 45.8517 10.76V11.5H38.5917C38.6317 12.14 38.8517 12.6933 39.2517 13.16C39.6651 13.6267 40.2317 13.86 40.9517 13.86C41.3651 13.86 41.6984 13.8 41.9517 13.68C42.2184 13.5467 42.4251 13.4 42.5717 13.24C42.7184 13.0667 42.8184 12.9133 42.8717 12.78C42.9251 12.6467 42.9517 12.58 42.9517 12.58H45.7517C45.7517 12.58 45.7184 12.7067 45.6517 12.96C45.5984 13.2 45.4784 13.5 45.2917 13.86C45.1051 14.22 44.8317 14.58 44.4717 14.94C44.1251 15.3 43.6651 15.6 43.0917 15.84C42.5184 16.08 41.8051 16.2 40.9517 16.2ZM38.5917 9.66H42.9317C42.8917 8.92667 42.6717 8.38 42.2717 8.02C41.8717 7.66 41.3784 7.48 40.7917 7.48C40.2051 7.48 39.7051 7.67333 39.2917 8.06C38.8784 8.43333 38.6451 8.96667 38.5917 9.66Z" fill="#2F3C4C"/>
<path d="M15.2764 3.96C14.7431 3.96 14.3097 3.79333 13.9764 3.46C13.6431 3.11333 13.4764 2.70667 13.4764 2.24C13.4764 1.74667 13.6431 1.33333 13.9764 0.999999C14.3097 0.653333 14.7431 0.48 15.2764 0.48C15.7831 0.48 16.2097 0.653333 16.5564 0.999999C16.9031 1.33333 17.0764 1.74667 17.0764 2.24C17.0764 2.70667 16.9031 3.11333 16.5564 3.46C16.2097 3.79333 15.7831 3.96 15.2764 3.96ZM13.7564 16V5.4H16.7964V16H13.7564Z" fill="#FD8549"/>
<path d="M32.5538 3.96C32.0204 3.96 31.5871 3.79333 31.2538 3.46C30.9204 3.11333 30.7538 2.70667 30.7538 2.24C30.7538 1.74667 30.9204 1.33333 31.2538 0.999999C31.5871 0.653333 32.0204 0.48 32.5538 0.48C33.0604 0.48 33.4871 0.653333 33.8338 0.999999C34.1804 1.33333 34.3538 1.74667 34.3538 2.24C34.3538 2.70667 34.1804 3.11333 33.8338 3.46C33.4871 3.79333 33.0604 3.96 32.5538 3.96ZM31.0338 16V5.4H34.0738V16H31.0338Z" fill="#8AE0E5"/>
</svg>
