<svg xmlns="http://www.w3.org/2000/svg" width="28" height="24" viewBox="0 0 28 24" fill="none"><path d="M0 24V17.6842C0 15.7661 0.330484 13.731 0.991453 11.5789C1.67521 9.40351 2.65527 7.30994 3.93162 5.29825C5.23077 3.26316 6.79202 1.49707 8.61538 0L11.9658 2.98246C10.2336 5.04094 8.77493 7.33333 7.58974 9.85965C6.42735 12.3626 5.84615 14.9357 5.84615 17.5789V24H0ZM16.0342 24V17.6842C16.0342 15.7661 16.3647 13.731 17.0256 11.5789C17.7094 9.40351 18.6895 7.30994 19.9658 5.29825C21.265 3.26316 22.8262 1.49707 24.6496 0L28 2.98246C26.2678 5.04094 24.8091 7.33333 23.6239 9.85965C22.4615 12.3626 21.8803 14.9357 21.8803 17.5789V24H16.0342Z" fill="#FD8549"></path></svg>