<svg xmlns="http://www.w3.org/2000/svg" width="660" height="554" viewBox="0 0 660 554" fill="none"><path opacity="0.4" fill-rule="evenodd" clip-rule="evenodd" d="M1223.54 531.598C1263.11 381.839 1157.3 226.709 1042.08 123.013C932.078 24.0163 780.954 -0.0861512 632.867 0.000244782C484.891 0.0865762 321.765 12.4586 224.136 123.49C129.732 230.853 147.127 389.903 165.436 531.598C180.959 651.731 226.284 766.633 317.551 846.433C403.328 921.431 519.936 955.962 632.867 940.295C733.547 926.327 787.701 827.424 871.249 769.616C992.402 685.789 1185.95 673.904 1223.54 531.598Z" fill="#F6FDFE"></path><path fill-rule="evenodd" clip-rule="evenodd" d="M461.879 1039.99C356.956 1041.15 337.064 885.635 260.064 814.404C176.357 736.969 1.35636 726.709 0.00756382 612.729C-1.33802 499.021 177.511 489.289 255.233 406.228C338.99 316.719 340.935 139.397 461.879 119.137C583.03 98.8419 674.775 227.392 751.759 323.051C818.89 406.465 879.085 507.564 859.113 612.729C840.966 708.291 725.538 738.74 659.287 809.999C587.77 886.922 566.944 1038.83 461.879 1039.99Z" fill="#F6FDFE"></path></svg>