<svg xmlns="http://www.w3.org/2000/svg" width="917" height="561" viewBox="0 0 917 561" fill="none"><path opacity="0.4" fill-rule="evenodd" clip-rule="evenodd" d="M908.544 531.598C948.109 381.839 842.297 226.709 727.076 123.013C617.078 24.0163 465.954 -0.0861512 317.867 0.000244782C169.891 0.0865762 6.76485 12.4586 -90.8643 123.49C-185.268 230.853 -167.873 389.903 -149.564 531.598C-134.041 651.731 -88.716 766.633 2.55117 846.433C88.3282 921.431 204.936 955.962 317.867 940.295C418.547 926.327 472.701 827.424 556.249 769.616C677.402 685.789 870.948 673.904 908.544 531.598Z" fill="#F6FDFE"></path><path fill-rule="evenodd" clip-rule="evenodd" d="M146.879 1039.99C41.9563 1041.15 22.0642 885.635 -54.9365 814.404C-138.643 736.969 -313.644 726.709 -314.992 612.729C-316.338 499.021 -137.489 489.289 -59.7667 406.228C23.9904 316.719 25.9352 139.397 146.879 119.137C268.03 98.8419 359.775 227.392 436.759 323.051C503.89 406.465 564.085 507.564 544.113 612.729C525.966 708.291 410.538 738.74 344.287 809.999C272.77 886.922 251.944 1038.83 146.879 1039.99Z" fill="#F6FDFE"></path></svg>