<svg xmlns="http://www.w3.org/2000/svg" width="960" height="800" viewBox="0 0 960 800" fill="none"><path opacity="0.24" fill-rule="evenodd" clip-rule="evenodd" d="M8.45603 268.402C-31.1089 418.161 74.7033 573.292 189.924 676.987C299.922 775.984 451.046 800.086 599.133 800C747.109 799.913 910.235 787.541 1007.86 676.51C1102.27 569.147 1084.87 410.097 1066.56 268.402C1051.04 148.269 1005.72 33.3666 914.449 -46.4326C828.672 -121.431 712.064 -155.962 599.133 -140.295C498.453 -126.327 444.299 -27.4237 360.751 30.3841C239.598 114.211 46.0523 126.096 8.45603 268.402Z" fill="#8AE0E5"></path><path opacity="0.24" fill-rule="evenodd" clip-rule="evenodd" d="M770.121 -239.994C875.044 -241.151 894.936 -85.6347 971.936 -14.4035C1055.64 63.0315 1230.64 73.2908 1231.99 187.271C1233.34 300.979 1054.49 310.711 976.767 393.772C893.01 483.281 891.065 660.603 770.121 680.863C648.97 701.158 557.225 572.608 480.241 476.949C413.11 393.535 352.915 292.436 372.887 187.271C391.034 91.7088 506.462 61.2601 572.713 -9.99924C644.23 -86.9224 665.056 -238.834 770.121 -239.994Z" fill="#8AE0E5"></path></svg>