<svg xmlns="http://www.w3.org/2000/svg" width="747" height="542" viewBox="0 0 747 542" fill="none"><path opacity="0.24" fill-rule="evenodd" clip-rule="evenodd" d="M610.653 -551.124C761.175 -561.755 927.246 -623.575 1045.61 -530.112C1169.95 -431.93 1227.54 -248.888 1187.3 -95.7846C1151.18 41.6421 960.213 52.5887 864.759 157.954C757.845 275.969 768.748 520.654 610.653 540.739C455.642 560.432 390.498 344.666 282.463 231.931C178.829 123.789 11.1126 53.5305 0.666027 -95.7846C-10.0407 -248.818 110.115 -380.878 233.162 -472.73C340.174 -552.611 477.378 -541.711 610.653 -551.124Z" fill="#8AE0E5"></path><path opacity="0.24" fill-rule="evenodd" clip-rule="evenodd" d="M139.006 -119.121C137.849 -224.044 293.365 -243.936 364.596 -320.936C442.031 -404.643 452.291 -579.644 566.271 -580.992C679.979 -582.338 689.711 -403.489 772.772 -325.767C862.281 -242.01 1039.6 -240.065 1059.86 -119.121C1080.16 2.0303 951.608 93.7746 855.949 170.759C772.535 237.89 671.436 298.085 566.271 278.113C470.709 259.966 440.26 144.538 369.001 78.2867C292.078 6.77006 140.166 -14.0558 139.006 -119.121Z" fill="#8AE0E5"></path></svg>